<svg xmlns="http://www.w3.org/2000/svg" version="1.1" xmlns:xlink="http://www.w3.org/1999/xlink" xmlns:svgjs="http://svgjs.dev/svgjs" width="1000" height="1000" viewBox="0 0 1000 1000"><rect width="1000" height="1000" fill="#ffffff"></rect><g transform="matrix(0.7,0,0,0.7,149.5757590384568,418.3796863474204)"><svg viewBox="0 0 396 92" data-background-color="#383f3c" preserveAspectRatio="xMidYMid meet" height="232" width="1000" xmlns="http://www.w3.org/2000/svg" xmlns:xlink="http://www.w3.org/1999/xlink"><defs></defs><g id="tight-bounds" transform="matrix(1,0,0,1,0.23999965045530303,0.23810871944166934)"><svg viewBox="0 0 395.5199999999999 91.52377877692027" height="91.52377877692027" width="395.5199999999999"><g><svg viewBox="0 0 507.7844847663718 117.50190850048003" height="91.52377877692027" width="395.5199999999999"><g transform="matrix(1,0,0,1,112.26448476637182,16.239409930240015)"><svg viewBox="0 0 395.52 85.02308864" height="85.02308864" width="395.52"><g><svg viewBox="0 0 395.52 85.02308864" height="85.02308864" width="395.52"><g><svg viewBox="0 0 395.52 45.85739130434782" height="45.85739130434782" width="395.52"><g transform="matrix(1,0,0,1,0,0)"><svg width="395.52" viewBox="3.700000047683716 -35 307.0299987792969 35.599998474121094" height="45.85739130434782" data-palette-color="#fdfdff"><path d="M23-34.4Q26.2-34.4 28.7-32.93 31.2-31.45 32.6-28.88 34-26.3 34-23.1L34-23.1 34-22.45Q34-19.25 32.6-16.65 31.2-14.05 28.7-12.58 26.2-11.1 23-11.1L23-11.1 14.75-11.1 14.75 0 3.7 0 3.7-34.4 23-34.4ZM14.75-26.25L14.75-19.15 19.3-19.15Q21.05-19.15 21.93-20.05 22.8-20.95 22.8-22.5L22.8-22.5 22.8-22.9Q22.8-24.5 21.93-25.38 21.05-26.25 19.3-26.25L19.3-26.25 14.75-26.25ZM72.45-23.85Q72.45-20.7 70.75-18.15 69.05-15.6 65.8-14.4L65.8-14.4 73.45 0 61.05 0 54.95-12.55 50.85-12.55 50.85 0 39.8 0 39.8-34.4 60.85-34.4Q64.55-34.4 67.17-32.98 69.8-31.55 71.12-29.13 72.45-26.7 72.45-23.85L72.45-23.85ZM61.2-23.4Q61.2-24.75 60.3-25.65 59.4-26.55 58.1-26.55L58.1-26.55 50.85-26.55 50.85-20.2 58.1-20.2Q59.4-20.2 60.3-21.13 61.2-22.05 61.2-23.4L61.2-23.4ZM94.95-35Q103.85-35 108.7-30.45 113.55-25.9 113.55-17.2L113.55-17.2Q113.55-8.5 108.7-3.95 103.85 0.6 94.95 0.6L94.95 0.6Q86.05 0.6 81.22-3.93 76.4-8.45 76.4-17.2L76.4-17.2Q76.4-25.95 81.22-30.48 86.05-35 94.95-35L94.95-35ZM94.95-26.75Q91.4-26.75 89.55-24.6 87.7-22.45 87.7-18.8L87.7-18.8 87.7-15.6Q87.7-11.95 89.55-9.8 91.4-7.65 94.95-7.65L94.95-7.65Q98.5-7.65 100.37-9.8 102.25-11.95 102.25-15.6L102.25-15.6 102.25-18.8Q102.25-22.45 100.37-24.6 98.5-26.75 94.95-26.75L94.95-26.75ZM119.49 0L119.49-34.4 147.29-34.4 147.29-26.15 130.54-26.15 130.54-20.25 144.94-20.25 144.94-12.35 130.54-12.35 130.54 0 119.49 0ZM169.94-35Q178.84-35 183.69-30.45 188.54-25.9 188.54-17.2L188.54-17.2Q188.54-8.5 183.69-3.95 178.84 0.6 169.94 0.6L169.94 0.6Q161.04 0.6 156.22-3.93 151.39-8.45 151.39-17.2L151.39-17.2Q151.39-25.95 156.22-30.48 161.04-35 169.94-35L169.94-35ZM169.94-26.75Q166.39-26.75 164.54-24.6 162.69-22.45 162.69-18.8L162.69-18.8 162.69-15.6Q162.69-11.95 164.54-9.8 166.39-7.65 169.94-7.65L169.94-7.65Q173.49-7.65 175.37-9.8 177.24-11.95 177.24-15.6L177.24-15.6 177.24-18.8Q177.24-22.45 175.37-24.6 173.49-26.75 169.94-26.75L169.94-26.75ZM228.74-13.85Q228.74-6.8 224.29-3.1 219.84 0.6 211.64 0.6L211.64 0.6Q203.44 0.6 198.96-3.1 194.49-6.8 194.49-13.85L194.49-13.85 194.49-34.4 205.54-34.4 205.54-14Q205.54-11.1 207.09-9.38 208.64-7.65 211.59-7.65L211.59-7.65Q214.54-7.65 216.11-9.4 217.69-11.15 217.69-14L217.69-14 217.69-34.4 228.74-34.4 228.74-13.85ZM270.39 0L260.74 0 246.29-16.7 246.29 0 236.14 0 236.14-34.4 245.79-34.4 260.24-17.45 260.24-34.4 270.39-34.4 270.39 0ZM292.68-34.4Q310.73-34.4 310.73-17.2L310.73-17.2Q310.73 0 292.68 0L292.68 0 277.78 0 277.78-34.4 292.68-34.4ZM288.83-26.15L288.83-8.25 292.48-8.25Q299.43-8.25 299.43-15.7L299.43-15.7 299.43-18.7Q299.43-26.15 292.48-26.15L292.48-26.15 288.83-26.15Z" opacity="1" transform="matrix(1,0,0,1,0,0)" fill="#000000" class="undefined-text-0" data-fill-palette-color="primary" id="text-0"></path></svg></g></svg></g><g transform="matrix(1,0,0,1,0,56.68322081391304)"><svg viewBox="0 0 395.52 28.33986782608695" height="28.33986782608695" width="395.52"><g transform="matrix(1,0,0,1,0,0)"><svg width="395.52" viewBox="3.049999952316284 -36.349998474121094 521.27001953125 37.349998474121094" height="28.33986782608695" data-palette-color="#e9ecef"><path d="M19.95 1Q15.1 1 11.25-1.4 7.4-3.8 5.23-7.88 3.05-11.95 3.05-16.85L3.05-16.85Q3.05-21.85 5.33-26.13 7.6-30.4 11.53-32.93 15.45-35.45 20.15-35.45L20.15-35.45Q24.35-35.45 27.8-33.73 31.25-32 31.65-27.6L31.65-27.6 29.6-27.6Q29.2-30.95 26.18-32.2 23.15-33.45 19.9-33.45L19.9-33.45Q15.9-33.45 12.5-31.1 9.1-28.75 7.13-24.88 5.15-21 5.15-16.7L5.15-16.7Q5.15-12.55 7.05-8.93 8.95-5.3 12.35-3.15 15.75-1 20-1L20-1Q23.65-1 26.88-2.65 30.1-4.3 32.1-7.1L32.1-7.1 33.8-5.95Q31.35-2.5 27.7-0.75 24.05 1 19.95 1L19.95 1ZM84.57 0.45Q81.02 0.45 78.3-1.15 75.57-2.75 74.05-5.65 72.52-8.55 72.52-12.3L72.52-12.3Q72.52-16.1 74.05-19.03 75.57-21.95 78.32-23.6 81.07-25.25 84.62-25.25L84.62-25.25Q88.17-25.25 90.92-23.63 93.67-22 95.2-19.07 96.72-16.15 96.72-12.35L96.72-12.35Q96.72-8.6 95.2-5.68 93.67-2.75 90.92-1.15 88.17 0.45 84.57 0.45L84.57 0.45ZM84.62-1.45Q87.57-1.45 89.85-2.85 92.12-4.25 93.37-6.78 94.62-9.3 94.62-12.55L94.62-12.55Q94.62-15.75 93.37-18.2 92.12-20.65 89.85-22 87.57-23.35 84.62-23.35L84.62-23.35Q81.67-23.35 79.4-21.98 77.12-20.6 75.87-18.1 74.62-15.6 74.62-12.35L74.62-12.35Q74.62-9.15 75.87-6.68 77.12-4.2 79.4-2.83 81.67-1.45 84.62-1.45L84.62-1.45ZM138.2-0.05L138.2-36.35 140.3-36.35 140.3-0.05 138.2-0.05ZM183.67-0.05L183.67-36.35 185.77-36.35 185.77-0.05 183.67-0.05ZM229.5-11.75Q229.5-8.05 231.32-4.73 233.15-1.4 238.65-1.4L238.65-1.4Q240.7-1.4 242.5-1.98 244.3-2.55 246.55-3.8L246.55-3.8 247.5-2.25Q245.55-0.95 243.2-0.23 240.85 0.5 238.35 0.5L238.35 0.5Q233.15 0.5 230.27-2.8 227.4-6.1 227.4-11.65L227.4-11.65Q227.4-15.6 228.75-18.7 230.1-21.8 232.57-23.53 235.05-25.25 238.4-25.25L238.4-25.25Q241.3-25.25 243.57-23.93 245.85-22.6 247.12-20.28 248.4-17.95 248.4-14.95L248.4-14.95Q248.4-14.05 248.2-11.75L248.2-11.75 229.5-11.75ZM229.6-13.65L246.2-13.65Q246.3-14.2 246.3-15.05L246.3-15.05Q246.3-17.45 245.22-19.38 244.15-21.3 242.35-22.38 240.55-23.45 238.4-23.45L238.4-23.45Q234.9-23.45 232.47-20.75 230.05-18.05 229.6-13.65L229.6-13.65ZM299.97 0.3Q294.57 0.3 291.55-2.98 288.52-6.25 288.52-12.1L288.52-12.1Q288.52-16.15 289.97-19.18 291.42-22.2 294.12-23.85 296.82-25.5 300.37-25.5L300.37-25.5Q304.37-25.5 307.27-22.75L307.27-22.75 305.92-21.4Q304.72-22.55 303.37-23.08 302.02-23.6 300.37-23.6L300.37-23.6Q297.52-23.6 295.3-22.13 293.07-20.65 291.85-18 290.62-15.35 290.62-11.95L290.62-11.95Q290.62-7.15 293.2-4.38 295.77-1.6 300.22-1.6L300.22-1.6Q302.07-1.6 304-2.18 305.92-2.75 308.17-4L308.17-4 309.12-2.45Q307.12-1.15 304.72-0.43 302.32 0.3 299.97 0.3L299.97 0.3ZM355.85 0.65Q352.35 0.65 350.67-1.23 349-3.1 349-7L349-7 349-31.15 351.1-31.15 351.1-24.75 359.15-24.75 359.15-22.75 351.1-22.75 351.1-7Q351.1-3.8 352.52-2.53 353.95-1.25 355.8-1.25L355.8-1.25Q357.5-1.25 358.9-2L358.9-2 359.95-0.25Q358.45 0.65 355.85 0.65L355.85 0.65ZM400.47 0L400.47-25 402.72-25 402.72 0 400.47 0ZM401.57-28.75Q400.77-28.75 400.27-29.25 399.77-29.75 399.77-30.55L399.77-30.55Q399.77-31.35 400.27-31.85 400.77-32.35 401.57-32.35L401.57-32.35Q402.37-32.35 402.89-31.85 403.42-31.35 403.42-30.55L403.42-30.55Q403.42-29.75 402.89-29.25 402.37-28.75 401.57-28.75L401.57-28.75ZM445.14-21Q444.84-21.75 444.19-22.55 443.54-23.35 442.79-23.85L442.79-23.85 443.99-25.5Q445.29-24.6 446.12-23.35 446.94-22.1 447.59-20.4L447.59-20.4 454.34-2.85 462.54-24.8 464.74-24.8 455.54-0.05 453.19-0.05 445.14-21ZM505.42-11.75Q505.42-8.05 507.24-4.73 509.07-1.4 514.57-1.4L514.57-1.4Q516.62-1.4 518.42-1.98 520.22-2.55 522.47-3.8L522.47-3.8 523.42-2.25Q521.47-0.95 519.12-0.23 516.77 0.5 514.27 0.5L514.27 0.5Q509.07 0.5 506.19-2.8 503.32-6.1 503.32-11.65L503.32-11.65Q503.32-15.6 504.67-18.7 506.02-21.8 508.49-23.53 510.97-25.25 514.32-25.25L514.32-25.25Q517.22-25.25 519.49-23.93 521.77-22.6 523.04-20.28 524.32-17.95 524.32-14.95L524.32-14.95Q524.32-14.05 524.12-11.75L524.12-11.75 505.42-11.75ZM505.52-13.65L522.12-13.65Q522.22-14.2 522.22-15.05L522.22-15.05Q522.22-17.45 521.14-19.38 520.07-21.3 518.27-22.38 516.47-23.45 514.32-23.45L514.32-23.45Q510.82-23.45 508.39-20.75 505.97-18.05 505.52-13.65L505.52-13.65Z" opacity="1" transform="matrix(1,0,0,1,0,0)" fill="#000000" class="undefined-text-1" data-fill-palette-color="secondary" id="text-1"></path></svg></g></svg></g></svg></g></svg></g><g><svg viewBox="0 0 101.4386552568066 117.50190850048003" height="117.50190850048003" width="101.4386552568066"><g><svg xmlns="http://www.w3.org/2000/svg" xmlns:xlink="http://www.w3.org/1999/xlink" version="1.1" x="0" y="0" viewBox="9.63800048828125 3.246999979019165 80.7239990234375 93.50699615478516" enable-background="new 0 0 100 100" xml:space="preserve" height="117.50190850048003" width="101.4386552568066" class="icon-icon-0" data-fill-palette-color="accent" id="icon-0"><g fill="#32933c" data-fill-palette-color="accent"><g fill="#32933c" data-fill-palette-color="accent"><polygon points="36.703,11.011 9.638,26.636 9.638,38.757 36.703,23.131 63.767,38.757 63.767,26.636   " fill="#000000" data-fill-palette-color="accent"></polygon></g><g fill="#32933c" data-fill-palette-color="accent"><polygon points="63.298,89.092 36.233,73.467 36.233,61.348 63.298,76.973 90.362,61.348 90.362,73.467   " fill="#000000" data-fill-palette-color="accent"></polygon></g><g fill="#32933c" data-fill-palette-color="accent"><polygon points="9.638,42.012 36.703,26.386 47.198,32.446 20.134,48.072 20.134,79.324 9.638,73.264   " fill="#000000" data-fill-palette-color="accent"></polygon></g><g fill="#32933c" data-fill-palette-color="accent"><polygon points="77.083,18.872 50.018,3.247 39.522,9.307 66.586,24.932 66.586,56.184 77.083,50.124   " fill="#000000" data-fill-palette-color="accent"></polygon></g><g fill="#32933c" data-fill-palette-color="accent"><polygon points="23.01,81.127 23.011,49.876 33.507,43.816 33.507,75.068 60.571,90.693 50.075,96.754   " fill="#000000" data-fill-palette-color="accent"></polygon></g><g fill="#32933c" data-fill-palette-color="accent"><polygon points="90.362,58.092 90.362,26.84 79.866,20.78 79.866,52.031 52.802,67.658 63.298,73.719   " fill="#000000" data-fill-palette-color="accent"></polygon></g></g></svg></g></svg></g></svg></g></svg><rect width="395.5199999999999" height="91.52377877692027" fill="none" stroke="none" visibility="hidden"></rect></g></svg></g></svg>